<svg width="128" height="128" viewBox="0 0 128 128" fill="none" xmlns="http://www.w3.org/2000/svg">
<g clip-path="url(#clip0_1_24)">
<rect width="128" height="128" fill="black"/>
<circle cx="63.5" cy="63.5" r="56.5" stroke="white" stroke-width="2"/>
<path d="M89.6 82.2C89.6 86 88.7333 89.1667 87 91.7C85.2667 94.2333 82.9667 96.2667 80.1 97.8C77.3 99.2667 74.2333 100.333 70.9 101C67.6333 101.6 64.4333 101.9 61.3 101.9C57.2333 101.9 53.4 101.267 49.8 100C48.3333 99.4667 46.9 98.9 45.5 98.3C44.1 97.6333 42.6333 97.1 41.1 96.7C40.8333 94.5667 40.3667 92.2333 39.7 89.7C39.1 87.1667 38.8 84.8667 38.8 82.8C38.8 81.8667 38.9333 81.1667 39.2 80.7C39.5333 80.1667 40.2333 79.9 41.3 79.9C42.2333 79.9 42.8333 80.1333 43.1 80.6C43.3667 81 43.5667 81.5667 43.7 82.3C43.9667 83.2333 44.2 84.1667 44.4 85.1C44.6 85.9667 44.8333 86.8667 45.1 87.8C46.4333 91.8 48.4 94.6 51 96.2C53.6667 97.8 57.0667 98.6 61.2 98.6C64.6 98.6 67.6333 98.1333 70.3 97.2C73.0333 96.2 75.1667 94.6 76.7 92.4C78.3 90.2 79.1 87.2667 79.1 83.6C79.1 80.7333 78.1333 78.1667 76.2 75.9C74.2667 73.5667 72.1333 71.7333 69.8 70.4C69.2667 70.0667 68.7 69.7667 68.1 69.5C67.5 69.2333 66.9 68.9667 66.3 68.7C64.2333 67.6333 62.1333 66.5667 60 65.5C57.9333 64.4333 55.8333 63.4 53.7 62.4C51.6333 61.3333 49.5 60 47.3 58.4C45.1667 56.7333 43.3333 54.8333 41.8 52.7C40.3333 50.5667 39.6 48.2333 39.6 45.7C39.6 41.4333 40.7333 37.9 43 35.1C45.2667 32.3 48.1667 30.2 51.7 28.8C55.2333 27.4 58.9 26.7 62.7 26.7C65.4333 26.7 67.8667 27.0333 70 27.7C72.2 28.3667 74.3667 29.0667 76.5 29.8C78.6333 30.4667 80.9667 30.9333 83.5 31.2C83.7 33.2 83.9 35.2 84.1 37.2C84.3 39.2 84.6 41.2 85 43.2C85.0667 43.4667 85.1 43.7333 85.1 44C85.1667 44.2667 85.2 44.5333 85.2 44.8C85.2 45.8667 84.8333 46.5667 84.1 46.9C83.4333 47.1667 82.6667 47.3 81.8 47.3C80.9333 47.3 80.4667 47.1333 80.4 46.8C80.3333 46.4667 80.2333 45.9667 80.1 45.3C79.2333 39.9667 77.4 35.9667 74.6 33.3C71.8 30.5667 67.6 29.2 62 29.2C57.8667 29.2 54.6333 30.3 52.3 32.5C50.0333 34.7 48.9 37.9 48.9 42.1C48.9 44.9 49.6333 47.2667 51.1 49.2C52.5667 51.1333 54.5 52.8333 56.9 54.3C59.3667 55.7 62.0333 57.0333 64.9 58.3C67.8333 59.5667 70.7333 60.8667 73.6 62.2C76.4667 63.5333 79.1 65.1 81.5 66.9C83.9667 68.6333 85.9333 70.7333 87.4 73.2C88.8667 75.6667 89.6 78.6667 89.6 82.2Z" fill="white"/>
</g>
<defs>
<clipPath id="clip0_1_24">
<rect width="128" height="128" fill="white"/>
</clipPath>
</defs>
</svg>
