<svg width="256" height="256" viewBox="0 0 256 256" fill="none" xmlns="http://www.w3.org/2000/svg">
<g clip-path="url(#clip0_3_36)">
<circle cx="127" cy="127" r="113" stroke="white" stroke-width="4"/>
<path d="M179.2 164.4C179.2 172 177.467 178.333 174 183.4C170.533 188.467 165.933 192.533 160.2 195.6C154.6 198.533 148.467 200.667 141.8 202C135.267 203.2 128.867 203.8 122.6 203.8C114.467 203.8 106.8 202.533 99.6 200C96.6667 198.933 93.8 197.8 91 196.6C88.2 195.267 85.2667 194.2 82.2 193.4C81.6667 189.133 80.7333 184.467 79.4 179.4C78.2 174.333 77.6 169.733 77.6 165.6C77.6 163.733 77.8667 162.333 78.4 161.4C79.0667 160.333 80.4667 159.8 82.6 159.8C84.4667 159.8 85.6667 160.267 86.2 161.2C86.7333 162 87.1333 163.133 87.4 164.6C87.9333 166.467 88.4 168.333 88.8 170.2C89.2 171.933 89.6667 173.733 90.2 175.6C92.8667 183.6 96.8 189.2 102 192.4C107.333 195.6 114.133 197.2 122.4 197.2C129.2 197.2 135.267 196.267 140.6 194.4C146.067 192.4 150.333 189.2 153.4 184.8C156.6 180.4 158.2 174.533 158.2 167.2C158.2 161.467 156.267 156.333 152.4 151.8C148.533 147.133 144.267 143.467 139.6 140.8C138.533 140.133 137.4 139.533 136.2 139C135 138.467 133.8 137.933 132.6 137.4C128.467 135.267 124.267 133.133 120 131C115.867 128.867 111.667 126.8 107.4 124.8C103.267 122.667 99 120 94.6 116.8C90.3333 113.467 86.6667 109.667 83.6 105.4C80.6667 101.133 79.2 96.4667 79.2 91.4C79.2 82.8667 81.4667 75.8 86 70.2C90.5333 64.6 96.3333 60.4 103.4 57.6C110.467 54.8 117.8 53.4 125.4 53.4C130.867 53.4 135.733 54.0667 140 55.4C144.4 56.7333 148.733 58.1333 153 59.6C157.267 60.9333 161.933 61.8667 167 62.4C167.4 66.4 167.8 70.4 168.2 74.4C168.6 78.4 169.2 82.4 170 86.4C170.133 86.9333 170.2 87.4667 170.2 88C170.333 88.5333 170.4 89.0667 170.4 89.6C170.4 91.7333 169.667 93.1333 168.2 93.8C166.867 94.3333 165.333 94.6 163.6 94.6C161.867 94.6 160.933 94.2667 160.8 93.6C160.667 92.9333 160.467 91.9333 160.2 90.6C158.467 79.9333 154.8 71.9333 149.2 66.6C143.6 61.1333 135.2 58.4 124 58.4C115.733 58.4 109.267 60.6 104.6 65C100.067 69.4 97.8 75.8 97.8 84.2C97.8 89.8 99.2667 94.5333 102.2 98.4C105.133 102.267 109 105.667 113.8 108.6C118.733 111.4 124.067 114.067 129.8 116.6C135.667 119.133 141.467 121.733 147.2 124.4C152.933 127.067 158.2 130.2 163 133.8C167.933 137.267 171.867 141.467 174.8 146.4C177.733 151.333 179.2 157.333 179.2 164.4Z" fill="white"/>
</g>
<defs>
<clipPath id="clip0_3_36">
<rect width="256" height="256" fill="white"/>
</clipPath>
</defs>
</svg>
